<?xml version="1.0" encoding="utf-8"?>
<!-- Generator: Adobe Illustrator 16.0.0, SVG Export Plug-In . SVG Version: 6.00 Build 0)  -->
<!DOCTYPE svg PUBLIC "-//W3C//DTD SVG 1.1//EN" "http://www.w3.org/Graphics/SVG/1.1/DTD/svg11.dtd">
<svg version="1.1" id="Layer_1" xmlns="http://www.w3.org/2000/svg" xmlns:xlink="http://www.w3.org/1999/xlink" x="0px" y="0px"
	 width="" height="" viewBox="0 0 211.271 59.582" enable-background="new 0 0 211.271 59.582"
	 xml:space="preserve">
<g>
	<circle fill="#FFFFFF" cx="18.993" cy="7.534" r="5.848"/>
	<circle fill="#FFFFFF" cx="10.095" cy="17.891" r="4.905"/>
	<circle fill="#FFFFFF" cx="16.309" cy="28.944" r="3.962"/>
	<path fill="#FFFFFF" d="M6.154,24.391C-0.833,37.142,2.836,44.827,7.9,47.973c5.065,3.145,6.986,5.59,6.288,10.131
		c6.463-5.938,7.336-15.896,0.523-20.438C7.9,33.124,5.769,29.343,6.154,24.391z"/>
	<path fill="#FFFFFF" d="M25.347,11.895c12.947,8.653,13.471,27.866,0.195,37.649c3.493-5.59-6.638-10.656-2.271-20.438
		C26.267,22.397,28.862,19.324,25.347,11.895z"/>
	<g>
		<path fill="#FFFFFF" d="M47.784,20.936h0.889v5.139h-0.757l-2.833-3.655v3.655h-0.888v-5.139h0.836l2.753,3.553V20.936
			L47.784,20.936z"/>
		<path fill="#FFFFFF" d="M55.274,26.073h-0.953l-0.521-1.24h-2.43l-0.528,1.24h-0.925l2.261-5.175h0.837L55.274,26.073z
			 M52.581,21.978L51.7,24.033h1.77L52.581,21.978z"/>
		<path fill="#FFFFFF" d="M58.032,26.073h-0.911v-4.301h-1.629v-0.837h4.169v0.837h-1.629V26.073L58.032,26.073z"/>
		<path fill="#FFFFFF" d="M61.933,20.936v5.139h-0.902v-5.139H61.933z"/>
		<path fill="#FFFFFF" d="M66.123,26.161c-1.578,0-2.68-1.195-2.68-2.65c0-1.452,1.116-2.664,2.693-2.664
			c1.578,0,2.68,1.195,2.68,2.65C68.816,24.95,67.702,26.161,66.123,26.161z M66.123,21.677c-1.021,0-1.731,0.813-1.731,1.82
			c0,1.006,0.728,1.834,1.746,1.834c1.021,0,1.732-0.813,1.732-1.82C67.87,22.505,67.143,21.677,66.123,21.677z"/>
		<path fill="#FFFFFF" d="M73.863,20.936h0.888v5.139h-0.756l-2.833-3.655v3.655h-0.89v-5.139h0.837l2.754,3.553V20.936
			L73.863,20.936z"/>
		<path fill="#FFFFFF" d="M81.353,26.073h-0.954l-0.521-1.24h-2.43l-0.528,1.24h-0.925l2.261-5.175h0.837L81.353,26.073z
			 M78.661,21.978l-0.881,2.056h1.769L78.661,21.978z"/>
		<path fill="#FFFFFF" d="M82.598,20.936h0.902v4.315h2.702v0.822h-3.604V20.936z"/>
		<path fill="#FFFFFF" d="M93.37,26.073l-1.264-1.791h-1.13v1.791h-0.902v-5.139h2.29c1.183,0,1.908,0.625,1.908,1.629
			c0,0.852-0.507,1.365-1.227,1.564l1.388,1.944L93.37,26.073L93.37,26.073z M92.291,21.757h-1.313v1.725h1.321
			c0.646,0,1.057-0.337,1.057-0.866C93.354,22.05,92.959,21.757,92.291,21.757z"/>
		<path fill="#FFFFFF" d="M99.554,21.742h-2.907v1.337h2.577v0.807h-2.577v1.38h2.944v0.808h-3.847v-5.139h3.81V21.742z"/>
		<path fill="#FFFFFF" d="M103.01,23.093c1.087,0.265,1.651,0.654,1.651,1.513c0,0.969-0.756,1.542-1.835,1.542
			c-0.785,0-1.526-0.271-2.145-0.822l0.543-0.646c0.492,0.426,0.984,0.668,1.623,0.668c0.559,0,0.91-0.257,0.91-0.654
			c0-0.374-0.206-0.571-1.16-0.792c-1.094-0.264-1.711-0.587-1.711-1.542c0-0.896,0.734-1.498,1.755-1.498
			c0.749,0,1.343,0.228,1.864,0.646l-0.484,0.684c-0.462-0.345-0.925-0.527-1.395-0.527c-0.528,0-0.837,0.271-0.837,0.616
			C101.791,22.683,102.025,22.857,103.01,23.093z"/>
		<path fill="#FFFFFF" d="M108.54,26.161c-1.577,0-2.678-1.195-2.678-2.65c0-1.452,1.114-2.664,2.692-2.664
			c1.577,0,2.68,1.195,2.68,2.65C111.234,24.95,110.118,26.161,108.54,26.161z M108.54,21.677c-1.021,0-1.73,0.813-1.73,1.82
			c0,1.006,0.729,1.834,1.746,1.834c1.021,0,1.732-0.813,1.732-1.82C110.288,22.505,109.56,21.677,108.54,21.677z"/>
		<path fill="#FFFFFF" d="M117.007,23.85c0,1.534-0.865,2.305-2.209,2.305c-1.336,0-2.188-0.771-2.188-2.261v-2.958h0.901v2.922
			c0,0.954,0.492,1.468,1.302,1.468c0.8,0,1.292-0.484,1.292-1.432v-2.958h0.9v2.914H117.007L117.007,23.85z"/>
		<path fill="#FFFFFF" d="M121.907,26.073l-1.262-1.791h-1.133v1.791h-0.899v-5.139h2.288c1.185,0,1.908,0.625,1.908,1.629
			c0,0.852-0.508,1.365-1.227,1.564l1.387,1.944L121.907,26.073L121.907,26.073z M120.829,21.757h-1.314v1.725h1.322
			c0.645,0,1.057-0.337,1.057-0.866C121.893,22.05,121.497,21.757,120.829,21.757z"/>
		<path fill="#FFFFFF" d="M126.669,26.161c-1.498,0-2.613-1.166-2.613-2.65c0-1.467,1.094-2.664,2.648-2.664
			c0.946,0,1.52,0.33,2.012,0.8l-0.58,0.668c-0.41-0.382-0.853-0.64-1.438-0.64c-0.983,0-1.694,0.809-1.694,1.82
			c0,1.014,0.711,1.836,1.694,1.836c0.632,0,1.033-0.258,1.476-0.668l0.58,0.586C128.216,25.81,127.63,26.161,126.669,26.161z"/>
		<path fill="#FFFFFF" d="M133.874,21.742h-2.908v1.337h2.578v0.807h-2.578v1.38h2.942v0.808h-3.846v-5.139h3.812V21.742z"/>
		<path fill="#FFFFFF" d="M140.3,26.161c-1.498,0-2.613-1.166-2.613-2.65c0-1.467,1.094-2.664,2.648-2.664
			c0.946,0,1.52,0.33,2.012,0.8l-0.58,0.668c-0.41-0.382-0.852-0.64-1.438-0.64c-0.984,0-1.697,0.809-1.697,1.82
			c0,1.014,0.713,1.836,1.697,1.836c0.631,0,1.032-0.258,1.475-0.668l0.58,0.586C141.846,25.81,141.26,26.161,140.3,26.161z"/>
		<path fill="#FFFFFF" d="M147.503,21.742h-2.906v1.337h2.576v0.807h-2.576v1.38h2.943v0.808h-3.847v-5.139h3.81V21.742
			L147.503,21.742z"/>
		<path fill="#FFFFFF" d="M152.567,20.936h0.887v5.139h-0.756l-2.832-3.655v3.655h-0.891v-5.139h0.838l2.754,3.553V20.936
			L152.567,20.936z"/>
		<path fill="#FFFFFF" d="M157.311,26.073h-0.91v-4.301h-1.629v-0.837h4.168v0.837h-1.629V26.073z"/>
		<path fill="#FFFFFF" d="M164.069,21.742h-2.905v1.337h2.575v0.807h-2.575v1.38h2.942v0.808h-3.848v-5.139h3.811V21.742
			L164.069,21.742z"/>
		<path fill="#FFFFFF" d="M168.837,26.073l-1.263-1.791h-1.131v1.791h-0.901v-5.139h2.291c1.182,0,1.907,0.625,1.907,1.629
			c0,0.852-0.506,1.365-1.229,1.564l1.389,1.944L168.837,26.073L168.837,26.073z M167.759,21.757h-1.314v1.725h1.322
			c0.645,0,1.057-0.337,1.057-0.866C168.823,22.05,168.427,21.757,167.759,21.757z"/>
		<path fill="#FFFFFF" d="M174.147,22.901c0.117-0.564,0.301-1.086,0.633-1.453c0.353-0.382,0.785-0.587,1.068-0.587
			c0.279,0,0.473,0.185,0.465,0.323c-0.01,0.125-0.117,0.271-0.197,0.322c-0.065,0.045-0.133,0.053-0.19-0.006
			c-0.162-0.177-0.316-0.279-0.472-0.279c-0.247,0-0.454,0.308-0.674,1.681h0.836l-0.153,0.243l-0.74,0.074
			c-0.133,0.777-0.213,1.248-0.383,2.062c-0.265,1.255-0.551,1.784-0.97,2.21c-0.321,0.33-0.625,0.447-0.821,0.447
			c-0.222,0-0.469-0.154-0.469-0.323c0-0.11,0.102-0.241,0.213-0.329c0.059-0.045,0.096-0.045,0.146,0
			c0.115,0.116,0.344,0.197,0.482,0.197c0.117,0,0.229-0.059,0.293-0.154c0.088-0.103,0.242-0.404,0.479-1.783
			c0.179-1.006,0.277-1.623,0.396-2.342h-0.603l-0.021-0.08l0.223-0.222L174.147,22.901L174.147,22.901z"/>
		<path fill="#FFFFFF" d="M175.768,25.009c0-0.954,0.516-1.68,1.109-1.988c0.271-0.154,0.58-0.25,0.828-0.25
			c0.625,0,0.991,0.426,0.991,1.152c0,0.631-0.268,1.343-0.784,1.776c-0.316,0.265-0.734,0.462-1.152,0.462
			C176.034,26.161,175.768,25.597,175.768,25.009z M177.259,25.815c0.375-0.154,0.764-0.932,0.764-1.895
			c0-0.586-0.242-0.858-0.563-0.858c-0.097,0-0.185,0.022-0.267,0.051c-0.264,0.125-0.748,0.734-0.748,1.872
			c0,0.543,0.229,0.874,0.588,0.874C177.12,25.859,177.186,25.846,177.259,25.815z"/>
		<path fill="#FFFFFF" d="M180.663,23.981c0.375-0.705,0.801-1.211,1.094-1.211c0.125,0,0.258,0.081,0.321,0.191
			c0.06,0.096,0.054,0.228-0.014,0.336c-0.061,0.097-0.135,0.178-0.199,0.235c-0.063,0.044-0.125,0.044-0.168,0
			c-0.088-0.081-0.176-0.125-0.258-0.125c-0.09,0-0.188,0.066-0.358,0.294c-0.16,0.234-0.382,0.579-0.498,0.896
			c-0.111,0.47-0.207,0.954-0.296,1.424c-0.176,0.03-0.401,0.081-0.571,0.14l-0.06-0.059c0.185-0.777,0.39-1.659,0.527-2.438
			c0.045-0.25,0.035-0.33-0.016-0.33c-0.064,0-0.31,0.154-0.507,0.338l-0.104-0.176c0.383-0.418,0.846-0.728,1.059-0.728
			c0.189,0,0.213,0.323,0.095,0.853l-0.072,0.358L180.663,23.981L180.663,23.981z"/>
		<path fill="#FFFFFF" d="M45.544,33.771v2.783h-1.161v-6.604h1.161v2.745h3.151v-2.745h1.159v6.604h-1.159v-2.783H45.544z"/>
		<path fill="#FFFFFF" d="M56.448,30.986h-3.736v1.718h3.312v1.039h-3.312v1.772h3.784v1.036h-4.944v-6.604h4.896V30.986z"/>
		<path fill="#FFFFFF" d="M64.191,36.554h-1.226l-0.67-1.594h-3.122l-0.68,1.594h-1.189l2.906-6.652h1.076L64.191,36.554z
			 M60.729,31.29l-1.133,2.643h2.274L60.729,31.29z"/>
		<path fill="#FFFFFF" d="M65.322,29.949h1.16v5.548h3.473v1.057h-4.633V29.949z"/>
		<path fill="#FFFFFF" d="M73.01,36.554h-1.17v-5.529h-2.095v-1.075h5.358v1.075h-2.095L73.01,36.554L73.01,36.554z"/>
		<path fill="#FFFFFF" d="M77.49,33.771v2.783h-1.161v-6.604h1.161v2.745h3.15v-2.745h1.16v6.604h-1.16v-2.783H77.49z"/>
		<path fill="#FFFFFF" d="M86.61,36.554h-1.17v-2.604l-2.623-4h1.368l1.851,2.925l1.868-2.925h1.329l-2.622,3.972L86.61,36.554
			L86.61,36.554z"/>
		<path fill="#FFFFFF" d="M96.326,34.932h-0.037l-2.066-3.095v4.717H93.08v-6.604h1.236l2.01,3.124l2.01-3.124h1.236v6.604h-1.16
			v-4.736L96.326,34.932z"/>
		<path fill="#FFFFFF" d="M107.589,36.554h-1.227l-0.671-1.594h-3.123l-0.68,1.594h-1.188l2.905-6.652h1.075L107.589,36.554z
			 M104.127,31.29l-1.133,2.643h2.273L104.127,31.29z"/>
		<path fill="#FFFFFF" d="M112.956,36.554l-1.623-2.303h-1.453v2.303h-1.16v-6.604h2.943c1.52,0,2.453,0.802,2.453,2.095
			c0,1.094-0.652,1.754-1.576,2.01l1.783,2.5H112.956z M111.566,31.007h-1.688v2.217h1.697c0.83,0,1.357-0.436,1.357-1.113
			C112.935,31.384,112.427,31.007,111.566,31.007z"/>
		<path fill="#FFFFFF" d="M119.774,36.554l-1.62-2.303h-1.455v2.303h-1.161v-6.604h2.945c1.519,0,2.453,0.802,2.453,2.095
			c0,1.094-0.651,1.754-1.575,2.01l1.78,2.5H119.774z M118.387,31.007h-1.688v2.217h1.698c0.83,0,1.359-0.436,1.359-1.113
			C119.757,31.384,119.247,31.007,118.387,31.007z"/>
		<path fill="#FFFFFF" d="M123.585,29.949v6.604h-1.16v-6.604H123.585z"/>
		<path fill="#FFFFFF" d="M131.669,36.554h-1.226l-0.67-1.594h-3.125l-0.68,1.594h-1.188l2.906-6.652h1.074L131.669,36.554z
			 M128.208,31.29l-1.134,2.643h2.271L128.208,31.29z"/>
		<path fill="#FFFFFF" d="M135.526,36.667c-2.065,0-3.426-1.474-3.426-3.406c0-1.858,1.414-3.424,3.406-3.424
			c1.149,0,1.856,0.319,2.537,0.896l-0.736,0.878c-0.51-0.434-1.008-0.708-1.848-0.708c-1.22,0-2.144,1.058-2.144,2.341
			c0,1.367,0.896,2.367,2.244,2.367c0.623,0,1.189-0.197,1.596-0.5v-1.236h-1.688v-1.01h2.812v2.773
			C137.63,36.194,136.696,36.667,135.526,36.667z"/>
		<path fill="#FFFFFF" d="M144.686,30.986h-3.736v1.718h3.312v1.039h-3.312v1.772h3.783v1.036h-4.942v-6.604h4.896V30.986z"/>
		<path fill="#FFFFFF" d="M152.552,35.658c-0.537,0.659-1.188,1.009-1.435,1.009c-0.188,0-0.329-0.142-0.188-0.857l0.17-0.83h-0.018
			c-0.359,0.51-0.783,0.943-1.162,1.255c-0.302,0.245-0.631,0.435-0.904,0.435c-0.266,0-0.566-0.33-0.566-1.074
			c0-0.944,0.443-1.963,1.113-2.538c0.471-0.396,1.18-0.746,1.803-0.746c0.197,0,0.388,0.028,0.595,0.075
			c0.141,0.027,0.272,0.058,0.387,0.058l0.037,0.037c-0.16,0.623-0.435,1.858-0.648,3.039c-0.059,0.319-0.037,0.403,0.021,0.403
			c0.084,0,0.414-0.227,0.678-0.488L152.552,35.658z M151.221,34.251c0.113-0.389,0.264-1.095,0.32-1.389
			c-0.132-0.064-0.377-0.131-0.613-0.131c-0.234,0-0.461,0.064-0.621,0.188c-0.623,0.463-0.992,1.576-0.992,2.49
			c0,0.416,0.104,0.604,0.246,0.604C149.919,36.017,150.938,34.847,151.221,34.251z"/>
		<path fill="#FFFFFF" d="M157.344,35.732c-0.576,0.642-1.123,0.935-1.389,0.935c-0.234,0-0.339-0.244-0.16-0.99
			c0.16-0.688,0.33-1.377,0.492-2.065c0.12-0.528,0.062-0.651-0.066-0.659c-0.396,0-1.453,1.131-1.896,1.896
			c-0.123,0.472-0.266,1.057-0.379,1.632c-0.264,0.038-0.547,0.112-0.744,0.18l-0.065-0.065c0.254-1.01,0.529-2.122,0.766-3.17
			c0.064-0.312,0.039-0.387-0.02-0.387c-0.086,0-0.377,0.197-0.604,0.426l-0.131-0.236c0.535-0.576,1.104-0.916,1.387-0.916
			c0.228,0,0.271,0.32,0.095,1.076l-0.181,0.755h0.021c0.604-0.831,1.266-1.358,1.67-1.604c0.246-0.148,0.463-0.227,0.652-0.227
			c0.243,0,0.518,0.15,0.233,1.369c-0.143,0.632-0.303,1.273-0.442,1.914c-0.066,0.246-0.048,0.33,0.02,0.33
			c0.084,0,0.35-0.159,0.604-0.424L157.344,35.732z"/>
		<path fill="#FFFFFF" d="M162.229,35.694c-0.521,0.623-1.16,0.973-1.426,0.973c-0.197,0-0.34-0.149-0.188-0.877l0.16-0.772
			l-0.02,0.009c-0.416,0.549-0.888,0.953-1.217,1.217c-0.351,0.266-0.662,0.426-0.927,0.426c-0.33,0-0.641-0.377-0.641-1.142
			c0-0.888,0.404-1.896,1.104-2.481c0.443-0.396,1.236-0.735,1.681-0.735c0.131,0,0.312,0.01,0.547,0.095l0.305-1.5
			c0.084-0.425,0.047-0.472-0.369-0.472h-0.272l0.02-0.245c0.83-0.085,1.349-0.331,1.5-0.331c0.095,0,0.113,0.076,0.064,0.274
			c-0.435,1.869-0.812,3.67-1.15,5.473c-0.047,0.234-0.026,0.33,0.039,0.33c0.103,0,0.396-0.208,0.66-0.463L162.229,35.694z
			 M160.889,34.327l0.293-1.351c-0.15-0.142-0.48-0.254-0.746-0.254c-0.264,0-0.453,0.063-0.613,0.18
			c-0.621,0.451-0.979,1.66-0.979,2.435c0,0.473,0.131,0.681,0.283,0.681C159.596,36.017,160.589,34.894,160.889,34.327z"/>
		<path fill="#FFFFFF" d="M171.04,31.007h-3.757v1.802h3.33v1.056h-3.33v2.689h-1.159v-6.604h4.916V31.007L171.04,31.007z"/>
		<path fill="#FFFFFF" d="M177.878,36.554h-1.228l-0.67-1.594h-3.123l-0.682,1.594h-1.188l2.906-6.652h1.074L177.878,36.554z
			 M174.415,31.29l-1.134,2.643h2.271L174.415,31.29z"/>
		<path fill="#FFFFFF" d="M182.253,34.932h-0.037l-2.066-3.095v4.717h-1.143v-6.604h1.235l2.011,3.124l2.01-3.124h1.236v6.604h-1.16
			v-4.736L182.253,34.932z"/>
		<path fill="#FFFFFF" d="M188.421,29.949v6.604h-1.16v-6.604H188.421z"/>
		<path fill="#FFFFFF" d="M190.184,29.949h1.16v5.548h3.473v1.057h-4.633V29.949z"/>
		<path fill="#FFFFFF" d="M197.249,29.949v6.604h-1.16v-6.604H197.249z"/>
		<path fill="#FFFFFF" d="M203.909,30.986h-3.733v1.718h3.311v1.039h-3.311v1.772h3.783v1.036h-4.945v-6.604h4.896V30.986
			L203.909,30.986z"/>
		<path fill="#FFFFFF" d="M207.88,32.724c1.396,0.34,2.123,0.84,2.123,1.943c0,1.244-0.972,1.979-2.357,1.979
			c-1.01,0-1.963-0.351-2.756-1.058l0.697-0.83c0.633,0.548,1.266,0.857,2.086,0.857c0.717,0,1.17-0.33,1.17-0.84
			c0-0.48-0.265-0.736-1.49-1.02c-1.406-0.34-2.199-0.754-2.199-1.98c0-1.152,0.943-1.925,2.256-1.925
			c0.961,0,1.728,0.292,2.396,0.831l-0.623,0.878c-0.594-0.442-1.189-0.681-1.793-0.681c-0.68,0-1.076,0.35-1.076,0.793
			C206.313,32.194,206.616,32.421,207.88,32.724z"/>
	</g>
</g>
</svg>
